<?xml version="1.0" standalone="no"?>
<!DOCTYPE svg PUBLIC "-//W3C//DTD SVG 20010904//EN"
 "http://www.w3.org/TR/2001/REC-SVG-20010904/DTD/svg10.dtd">
<svg version="1.0" xmlns="http://www.w3.org/2000/svg"
 width="700.000000pt" height="700.000000pt" viewBox="0 0 700.000000 700.000000"
 preserveAspectRatio="xMidYMid meet">
<metadata>
Created by potrace 1.11, written by Peter Selinger 2001-2013
</metadata>
<g transform="translate(0.000000,700.000000) scale(0.100000,-0.100000)"
fill="#000000" stroke="none">
<path d="M253 6985 c-102 -31 -176 -96 -222 -195 l-26 -55 0 -1720 0 -1720 27
-55 c45 -90 107 -148 198 -185 39 -16 80 -19 305 -21 143 -1 265 -3 271 -3 7
-1 10 -437 10 -1498 -1 -824 0 -1506 3 -1516 3 -16 137 -17 2684 -15 l2681 3
0 808 c1 529 -2 811 -9 816 -5 3 -57 6 -115 6 l-105 -1 -5 -700 -5 -700 -2447
0 -2448 0 0 1398 c0 769 3 1398 8 1399 4 0 441 2 972 3 l965 2 57 26 c81 37
145 101 182 178 l30 65 2 1485 c1 817 2 1491 3 1498 1 9 136 12 641 12 l640 0
0 -700 0 -700 700 0 700 0 0 -815 0 -815 23 -1 c26 -1 105 -1 167 0 l45 1 -1
897 0 897 -725 724 c-398 399 -733 730 -744 736 -15 8 -240 11 -733 10 -642
-1 -712 1 -713 15 0 9 -2 52 -4 96 -3 88 -22 147 -69 213 -37 53 -124 112
-190 129 -74 19 -2692 18 -2753 -2z m2427 -576 c4 -6 5 -291 1 -334 -1 -7
-350 -9 -1028 -8 -566 1 -1037 2 -1049 2 -20 1 -21 5 -19 174 1 94 3 172 3
173 12 5 2088 -2 2092 -7z m-1749 -934 c0 -5 1 -57 2 -115 l0 -105 -116 -3
-117 -3 0 118 0 118 115 0 c69 0 115 -4 116 -10z m817 -108 l3 -117 -116 0
c-85 0 -115 3 -116 13 -7 80 -2 213 8 217 7 3 59 5 115 5 l103 -1 3 -117z
m813 114 c3 -1 5 -52 5 -113 l-1 -113 -116 -3 -116 -3 1 111 c1 73 5 113 13
118 9 5 186 8 214 3z m-1629 -824 c3 -10 2 -170 -1 -213 -1 -7 -38 -11 -113
-10 l-113 1 -3 117 -3 117 115 0 c79 0 116 -4 118 -12z m818 -107 l0 -117
-112 0 c-62 0 -115 4 -118 8 -4 5 -5 215 -1 227 1 1 53 2 116 1 l115 -1 0
-118z m816 -1 l0 -116 -116 0 -117 0 2 116 c1 64 3 117 4 119 0 1 52 1 114 0
l112 -3 1 -116z m-1631 -812 c0 -60 -3 -111 -8 -114 -6 -4 -160 -7 -209 -4
-16 1 -18 14 -18 116 l0 116 117 -3 117 -3 1 -108z m815 -2 c0 -112 -1 -115
-22 -116 -13 0 -65 -1 -117 -1 l-95 -1 -1 109 c0 60 1 112 3 117 2 4 55 7 118
7 l114 0 0 -115z m816 8 c-1 -60 -4 -112 -8 -118 -5 -8 -72 -10 -200 -6 l-26
1 1 115 2 115 115 0 116 0 0 -107z"/>
<path d="M3734 4433 l1 -117 115 0 115 -1 1 118 1 117 -117 0 -117 0 1 -117z"/>
<path d="M4200 4435 c0 -63 3 -115 8 -116 24 -3 1369 -4 1380 -1 9 3 12 36 12
118 l0 114 -700 0 -700 0 0 -115z"/>
<path d="M3733 3968 l1 -118 116 0 116 0 0 118 1 117 -117 0 -117 0 0 -117z"/>
<path d="M4210 4082 c-6 -2 -10 -51 -10 -118 l0 -114 700 0 701 0 -3 117 -3
117 -688 1 c-378 0 -692 -1 -697 -3z"/>
<path d="M3734 3501 l1 -116 115 0 115 0 0 115 0 115 -116 1 -117 1 2 -116z"/>
<path d="M4204 3605 c-3 -6 -3 -58 -2 -116 l3 -104 698 -1 697 0 0 116 0 116
-696 1 c-518 0 -697 -3 -700 -12z"/>
<path d="M6564 3365 c-28 -6 -71 -23 -96 -38 -26 -15 -469 -450 -1062 -1043
l-1017 -1016 -60 -125 c-32 -69 -59 -127 -59 -128 0 -2 -27 -60 -60 -130 -33
-70 -60 -129 -60 -131 0 -2 -14 -32 -30 -66 -51 -105 -43 -169 27 -206 38 -20
83 -13 167 26 45 21 189 88 321 148 l240 109 1035 1035 c1006 1006 1036 1037
1059 1097 103 270 -124 532 -405 468z"/>
<path d="M3733 3036 c0 -76 4 -116 11 -118 9 -3 177 -2 212 1 7 1 11 40 11
116 l-1 115 -116 0 -116 0 -1 -114z"/>
<path d="M4202 3033 l3 -117 685 -1 c377 0 691 1 698 3 9 3 12 36 12 118 l0
114 -700 0 -701 0 3 -117z"/>
<path d="M2579 2796 c-2 -2 -31 -7 -65 -10 -33 -3 -101 -17 -150 -31 -502
-146 -843 -595 -846 -1115 -3 -519 341 -981 837 -1125 126 -36 183 -43 337
-43 145 0 252 17 373 60 357 125 633 416 738 778 35 118 42 174 42 330 0 198
-34 343 -121 516 -157 312 -449 540 -789 616 -80 18 -344 36 -356 24z"/>
</g>
</svg>
